<svg xmlns="http://www.w3.org/2000/svg" viewBox="0 0 1600 1000" role="img" aria-hidden="true">
  <rect width="1600" height="1000" rx="64" fill="#f7f8fb"/>
  <rect x="120" y="120" width="1360" height="760" rx="48" fill="#ffffff" stroke="#dbe4f0" stroke-width="8"/>
  <rect x="220" y="180" width="420" height="640" rx="34" fill="#eff4fb"/>
  <rect x="730" y="180" width="650" height="110" rx="26" fill="#eff4fb"/>
  <rect x="730" y="324" width="650" height="110" rx="26" fill="#eff4fb"/>
  <rect x="730" y="468" width="650" height="110" rx="26" fill="#eff4fb"/>
  <rect x="730" y="612" width="650" height="110" rx="26" fill="#eff4fb"/>
  <path d="M280 256h300M280 316h250M280 376h280M280 436h180M280 496h220M280 556h290M280 616h210M280 676h260" stroke="#c9d4e8" stroke-width="18" stroke-linecap="round"/>
  <circle cx="820" cy="234" r="26" fill="#c9d4e8"/>
  <rect x="870" y="216" width="380" height="26" rx="13" fill="#c9d4e8"/>
  <rect x="870" y="260" width="220" height="18" rx="9" fill="#d9e1ef"/>
  <circle cx="820" cy="378" r="26" fill="#c9d4e8"/>
  <rect x="870" y="360" width="420" height="26" rx="13" fill="#c9d4e8"/>
  <rect x="870" y="404" width="260" height="18" rx="9" fill="#d9e1ef"/>
  <circle cx="820" cy="522" r="26" fill="#c9d4e8"/>
  <rect x="870" y="504" width="310" height="26" rx="13" fill="#c9d4e8"/>
  <rect x="870" y="548" width="210" height="18" rx="9" fill="#d9e1ef"/>
  <circle cx="820" cy="666" r="26" fill="#c9d4e8"/>
  <rect x="870" y="648" width="360" height="26" rx="13" fill="#c9d4e8"/>
  <rect x="870" y="692" width="250" height="18" rx="9" fill="#d9e1ef"/>
</svg>
