<svg xmlns="http://www.w3.org/2000/svg" viewBox="0 0 1600 1000" role="img" aria-hidden="true">
  <rect width="1600" height="1000" rx="64" fill="#f6f8fc"/>
  <rect x="120" y="120" width="1360" height="760" rx="48" fill="#ffffff" stroke="#dbe4f0" stroke-width="8"/>
  <path d="M260 730l270-150 290 120 220-190 260 92" fill="none" stroke="#c9d4e8" stroke-width="18" stroke-linecap="round" stroke-linejoin="round"/>
  <path d="M260 730l270-210 290 130 220-240 260 86" fill="none" stroke="#e2e8f4" stroke-width="18" stroke-linecap="round" stroke-linejoin="round"/>
  <circle cx="520" cy="520" r="82" fill="#e8eef9"/>
  <circle cx="520" cy="520" r="30" fill="#aebed5"/>
  <path d="M520 408c-52 0-94 42-94 94 0 72 94 164 94 164s94-92 94-164c0-52-42-94-94-94zm0 126a32 32 0 1 1 0-64 32 32 0 0 1 0 64z" fill="#aebed5"/>
  <rect x="860" y="220" width="260" height="24" rx="12" fill="#d9e1ef"/>
  <rect x="860" y="260" width="180" height="18" rx="9" fill="#e2e8f4"/>
  <rect x="860" y="312" width="340" height="18" rx="9" fill="#d9e1ef"/>
  <rect x="860" y="348" width="280" height="18" rx="9" fill="#e2e8f4"/>
  <rect x="860" y="404" width="220" height="18" rx="9" fill="#d9e1ef"/>
  <rect x="860" y="440" width="170" height="18" rx="9" fill="#e2e8f4"/>
  <rect x="860" y="516" width="340" height="220" rx="28" fill="#eff4fb"/>
  <path d="M900 566h260M900 620h200M900 674h150" stroke="#c9d4e8" stroke-width="18" stroke-linecap="round"/>
  <circle cx="1270" cy="290" r="92" fill="#eff4fb"/>
  <path d="M1270 248c-22 0-40 18-40 40 0 30 40 74 40 74s40-44 40-74c0-22-18-40-40-40zm0 54a14 14 0 1 1 0-28 14 14 0 0 1 0 28z" fill="#c9d4e8"/>
</svg>
