<svg xmlns="http://www.w3.org/2000/svg" viewBox="0 0 1600 1000" role="img" aria-hidden="true">
  <rect width="1600" height="1000" rx="64" fill="#f6f8fc"/>
  <rect x="120" y="120" width="1360" height="760" rx="48" fill="#ffffff" stroke="#dbe4f0" stroke-width="8"/>
  <rect x="190" y="190" width="540" height="620" rx="34" fill="#eff4fb"/>
  <rect x="790" y="190" width="440" height="260" rx="34" fill="#eff4fb"/>
  <rect x="790" y="490" width="440" height="320" rx="34" fill="#eff4fb"/>
  <path d="M250 280h340M250 340h250M250 400h300M250 460h190M250 520h240M250 580h280M250 640h210" stroke="#c9d4e8" stroke-width="18" stroke-linecap="round"/>
  <rect x="860" y="250" width="260" height="24" rx="12" fill="#c9d4e8"/>
  <rect x="860" y="294" width="180" height="18" rx="9" fill="#d9e1ef"/>
  <rect x="860" y="350" width="250" height="18" rx="9" fill="#d9e1ef"/>
  <path d="M870 580h240M870 640h180M870 700h220" stroke="#c9d4e8" stroke-width="18" stroke-linecap="round"/>
  <circle cx="1200" cy="360" r="42" fill="#c9d4e8"/>
  <circle cx="1090" cy="610" r="30" fill="#c9d4e8"/>
  <path d="M1090 610l110-250" stroke="#d9e1ef" stroke-width="14" stroke-linecap="round"/>
  <path d="M1090 610l140 120" stroke="#d9e1ef" stroke-width="14" stroke-linecap="round"/>
</svg>
